# xmcd
#
# Track frame offsets:
#	150
#	12754
#	24691
#	34192
#	44178
#	58359
#	75210
#	87661
#	97998
#	112409
#	125314
#	136050
#	152957
#	165949
#	182967
#
# Disc length: 2653 seconds
#
# Revision: 1
# Processed by: cddbd v1.5.2PL0 Copyright (c) Steve Scherf et al.
# Submitted via: audiograbber 1.83.01
#
DISCID=c80a5b0f
DTITLE=Various Artist - A Whole Lotta Country Volume 3
DYEAR=1900
DGENRE=Country
TTITLE0=Susan Raye - L.A. International Airport
TTITLE1=Glen Campbell - Galveston
TTITLE2=George Jones - The Race Is On
TTITLE3=Jean Shepard - Second Fiddle (To An Old Guitar)
TTITLE4=Mike McClellan - Song And Dance Man
TTITLE5=Ross Ryan - I Am Pegasus
TTITLE6=Crystal Gayle - Everybody's Reaching Out To Somebody
TTITLE7=Ferlin Husky - Wings Of A Dove
TTITLE8=Bobby Gentry with Glen Campbell - My Elusive Dreams
TTITLE9=Slim Dusty - Walk A Country Mile
TTITLE10=Chad Morgan - The Sheik Of Scrubby Creek
TTITLE11=Johnny Ashcroft - Little Boy Lost
TTITLE12=John Williamson - I'm In The Mood
TTITLE13=James Blundell - This Road
TTITLE14=Nitty Gritty Dirt Band - Mr Bojangles
EXTD=
EXTT0=
EXTT1=
EXTT2=
EXTT3=
EXTT4=
EXTT5=
EXTT6=
EXTT7=
EXTT8=
EXTT9=
EXTT10=
EXTT11=
EXTT12=
EXTT13=
EXTT14=
PLAYORDER=
